<svg width="375" height="44" viewBox="0 0 375 44" fill="none" xmlns="http://www.w3.org/2000/svg">
<path fill-rule="evenodd" clip-rule="evenodd" d="M339.589 17.1599H354.411C355.659 17.1599 356.111 17.2899 356.568 17.5339C357.024 17.7779 357.382 18.136 357.626 18.5923C357.87 19.0486 358 19.5012 358 20.7494V25.0705C358 26.3186 357.87 26.7712 357.626 27.2275C357.382 27.6838 357.024 28.0419 356.568 28.2859C356.111 28.53 355.659 28.6599 354.411 28.6599H339.589C338.341 28.6599 337.889 28.53 337.432 28.2859C336.976 28.0419 336.618 27.6838 336.374 27.2275C336.13 26.7712 336 26.3186 336 25.0705V20.7494C336 19.5012 336.13 19.0486 336.374 18.5923C336.618 18.136 336.976 17.7779 337.432 17.5339C337.889 17.2899 338.341 17.1599 339.589 17.1599ZM339.589 18.1599C338.602 18.1599 338.258 18.2264 337.904 18.4157C337.622 18.5665 337.407 18.7819 337.256 19.0639C337.067 19.4178 337 19.7624 337 20.7494V25.0705C337 26.0575 337.067 26.402 337.256 26.7559C337.407 27.0379 337.622 27.2533 337.904 27.4041C338.258 27.5934 338.602 27.6599 339.589 27.6599H354.411C355.398 27.6599 355.742 27.5934 356.096 27.4041C356.378 27.2533 356.593 27.0379 356.744 26.7559C356.933 26.402 357 26.0575 357 25.0705V20.7494C357 19.7624 356.933 19.4178 356.744 19.0639C356.593 18.7819 356.378 18.5665 356.096 18.4157C355.742 18.2264 355.398 18.1599 354.411 18.1599H339.589ZM360.5 22.8499C360.5 24.0865 359 24.8499 359 24.8499V20.8499C359 20.8499 360.5 21.6133 360.5 22.8499Z" fill="white" fill-opacity="0.36"/>
<rect x="338" y="19.0767" width="18" height="7.66667" rx="1.6" fill="black"/>
<path fill-rule="evenodd" clip-rule="evenodd" d="M307.623 18.566C307.6 18.6819 307.6 18.8213 307.6 19.1001V26.8001C307.6 27.0789 307.6 27.2183 307.623 27.3342C307.718 27.8102 308.09 28.1824 308.566 28.277C308.682 28.3001 308.821 28.3001 309.1 28.3001C309.379 28.3001 309.518 28.3001 309.634 28.277C310.11 28.1824 310.482 27.8102 310.577 27.3342C310.6 27.2183 310.6 27.0789 310.6 26.8001V19.1001C310.6 18.8213 310.6 18.6819 310.577 18.566C310.482 18.09 310.11 17.7178 309.634 17.6232C309.518 17.6001 309.379 17.6001 309.1 17.6001C308.821 17.6001 308.682 17.6001 308.566 17.6232C308.09 17.7178 307.718 18.09 307.623 18.566ZM302.9 21.5001C302.9 21.2213 302.9 21.0819 302.923 20.966C303.018 20.49 303.39 20.1178 303.866 20.0232C303.982 20.0001 304.121 20.0001 304.4 20.0001C304.679 20.0001 304.818 20.0001 304.934 20.0232C305.41 20.1178 305.782 20.49 305.877 20.966C305.9 21.0819 305.9 21.2213 305.9 21.5001V26.8001C305.9 27.0789 305.9 27.2183 305.877 27.3342C305.782 27.8102 305.41 28.1824 304.934 28.277C304.818 28.3001 304.679 28.3001 304.4 28.3001C304.121 28.3001 303.982 28.3001 303.866 28.277C303.39 28.1824 303.018 27.8102 302.923 27.3342C302.9 27.2183 302.9 27.0789 302.9 26.8001V21.5001ZM298.323 23.266C298.3 23.3819 298.3 23.5213 298.3 23.8001V26.8001C298.3 27.0789 298.3 27.2183 298.323 27.3342C298.418 27.8102 298.79 28.1824 299.266 28.277C299.382 28.3001 299.521 28.3001 299.8 28.3001C300.079 28.3001 300.218 28.3001 300.334 28.277C300.81 28.1824 301.182 27.8102 301.277 27.3342C301.3 27.2183 301.3 27.0789 301.3 26.8001V23.8001C301.3 23.5213 301.3 23.3819 301.277 23.266C301.182 22.79 300.81 22.4178 300.334 22.3232C300.218 22.3001 300.079 22.3001 299.8 22.3001C299.521 22.3001 299.382 22.3001 299.266 22.3232C298.79 22.4178 298.418 22.79 298.323 23.266ZM293.523 25.266C293.5 25.3819 293.5 25.5213 293.5 25.8001V26.8001C293.5 27.0789 293.5 27.2183 293.523 27.3342C293.618 27.8102 293.99 28.1824 294.466 28.277C294.582 28.3001 294.721 28.3001 295 28.3001C295.279 28.3001 295.418 28.3001 295.534 28.277C296.01 28.1824 296.382 27.8102 296.477 27.3342C296.5 27.2183 296.5 27.0789 296.5 26.8001V25.8001C296.5 25.5213 296.5 25.3819 296.477 25.266C296.382 24.79 296.01 24.4178 295.534 24.3232C295.418 24.3001 295.279 24.3001 295 24.3001C294.721 24.3001 294.582 24.3001 294.466 24.3232C293.99 24.4178 293.618 24.79 293.523 25.266Z" fill="black"/>
<path fill-rule="evenodd" clip-rule="evenodd" d="M323.301 19.6963C325.535 19.6964 327.684 20.5549 329.303 22.0945C329.425 22.2133 329.62 22.2118 329.74 22.0911L330.906 20.9147C330.967 20.8535 331.001 20.7705 331 20.6842C331 20.5979 330.965 20.5154 330.903 20.4549C326.653 16.3816 319.947 16.3816 315.697 20.4549C315.636 20.5154 315.601 20.5979 315.6 20.6842C315.6 20.7705 315.633 20.8534 315.694 20.9147L316.86 22.0911C316.98 22.212 317.175 22.2135 317.297 22.0945C318.917 20.5548 321.066 19.6963 323.301 19.6963ZM323.301 23.5236C324.528 23.5236 325.712 23.9799 326.622 24.8039C326.745 24.9209 326.939 24.9183 327.059 24.7982L328.223 23.6218C328.285 23.5601 328.319 23.4764 328.318 23.3894C328.317 23.3024 328.281 23.2194 328.219 23.159C325.447 20.5812 321.156 20.5812 318.385 23.159C318.322 23.2194 318.286 23.3024 318.286 23.3895C318.285 23.4765 318.319 23.5602 318.38 23.6218L319.544 24.7982C319.664 24.9183 319.858 24.9209 319.981 24.8039C320.891 23.9804 322.074 23.5242 323.301 23.5236ZM325.538 26.3313C325.6 26.2701 325.635 26.186 325.633 26.0988C325.631 26.0116 325.593 25.929 325.529 25.8704C324.242 24.7825 322.359 24.7825 321.072 25.8704C321.008 25.9289 320.97 26.0115 320.968 26.0987C320.966 26.186 321 26.2701 321.063 26.3313L323.077 28.3638C323.136 28.4235 323.217 28.4571 323.301 28.4571C323.385 28.4571 323.465 28.4235 323.524 28.3638L325.538 26.3313Z" fill="black"/>
<path d="M34.4316 28.2563C37.1196 28.2563 38.7163 26.1543 38.7163 22.5874C38.7163 19.0864 37.017 17.1675 34.4902 17.1675C32.1904 17.1675 30.5644 18.7129 30.5644 20.8735C30.5644 22.9023 32.0292 24.3818 34.0434 24.3818C35.2812 24.3818 36.2846 23.8105 36.7827 22.8071H36.9072C36.8852 25.29 35.999 26.7109 34.4536 26.7109C33.5454 26.7109 32.8203 26.2129 32.5932 25.4072H30.7109C31.0185 27.1284 32.498 28.2563 34.4316 28.2563ZM34.4975 22.9243C33.267 22.9243 32.4174 22.0601 32.4174 20.8149C32.4174 19.6211 33.311 18.7056 34.5048 18.7056C35.6987 18.7056 36.5922 19.6357 36.5922 20.8516C36.5922 22.0527 35.7206 22.9243 34.4975 22.9243ZM41.8691 21.1592C42.5649 21.1592 43.041 20.6758 43.041 20.0239C43.041 19.3721 42.5649 18.8887 41.8691 18.8887C41.1806 18.8887 40.6972 19.3721 40.6972 20.0239C40.6972 20.6758 41.1806 21.1592 41.8691 21.1592ZM41.8691 26.5352C42.5649 26.5352 43.041 26.0444 43.041 25.3999C43.041 24.748 42.5649 24.2646 41.8691 24.2646C41.1806 24.2646 40.6972 24.748 40.6972 25.3999C40.6972 26.0444 41.1806 26.5352 41.8691 26.5352ZM50.1782 28H51.9873V25.9712H53.4155V24.4111H51.9873V17.4312H49.3213C47.8858 19.6138 46.3843 22.0454 45.0147 24.4258V25.9712H50.1782V28ZM46.7652 24.3452C47.7979 22.5508 49.021 20.5952 50.105 18.9399H50.2075V24.4551H46.7652V24.3452ZM57.5792 28H59.4688V17.4312H57.5865L54.8253 19.3721V21.1519L57.4546 19.2915H57.5792V28Z" fill="black"/>
</svg>
