<svg width="192" height="104" viewBox="0 0 192 104" fill="none" xmlns="http://www.w3.org/2000/svg">
<path d="M127.696 98.999C148.443 97.3109 163.894 79.1186 162.205 58.3655C160.516 37.6124 142.328 22.1571 121.581 23.8453C100.834 25.5334 85.3835 43.7256 87.0721 64.4787C88.7607 85.2318 106.949 100.687 127.696 98.999Z" fill="#FDB6E4"/>
<path d="M11.1273 54.0557C9.8818 52.7049 8.76397 51.2416 7.7881 49.6846C6.79984 48.1475 5.90372 46.5531 5.10448 44.9097C4.29607 43.2613 3.58846 41.5653 2.98555 39.8312C2.35463 38.0864 1.89946 36.283 1.6268 34.4478C1.36899 32.5859 1.30397 30.7024 1.43276 28.8272C1.54605 26.9487 1.86169 25.0879 2.37419 23.2771C2.87931 21.4351 3.79675 19.7323 5.05708 18.2974C5.71015 17.5809 6.44708 16.9456 7.25199 16.4053C8.06515 15.8719 8.92922 15.4205 9.83148 15.0578C11.626 14.3528 13.5172 13.925 15.4404 13.7891C17.3204 13.6562 19.2087 13.6996 21.0806 13.9186L22.4696 14.078L23.8473 14.2799C24.7567 14.4224 25.6265 14.5666 26.515 14.7272C28.2848 15.0335 30.0439 15.3966 31.7961 15.7991C35.3136 16.618 38.7874 17.6148 42.2039 18.7858C43.9664 19.3684 45.6827 20.0826 47.3383 20.9223C47.5594 21.0455 47.7766 21.1666 48.02 21.3322C48.1735 21.4346 48.3168 21.5514 48.448 21.6811C48.5879 21.8183 48.6961 21.9844 48.7651 22.1679C48.7946 22.2526 48.8148 22.3403 48.8254 22.4294C48.834 22.5439 48.8246 22.659 48.7974 22.7706C48.7746 22.87 48.7342 22.9645 48.6782 23.0497C48.6339 23.1228 48.5803 23.1898 48.5186 23.249C48.393 23.366 48.243 23.4536 48.0794 23.5055C47.9893 23.5348 47.8969 23.5564 47.8031 23.57C47.6605 23.5906 47.5166 23.6012 47.3726 23.6017C47.1099 23.6038 46.8689 23.5874 46.6308 23.5663C45.7098 23.4624 44.7978 23.29 43.9024 23.0507L43.9296 22.6445C44.8231 22.5158 45.7247 22.3992 46.5693 22.2242C46.7703 22.1855 46.9692 22.1365 47.1652 22.0773C47.2442 22.0541 47.3209 22.0235 47.3943 21.9861C47.4231 21.9706 47.4408 21.9558 47.4373 21.9482C47.4326 21.9456 47.3958 21.9356 47.2839 22.0329C47.2419 22.0723 47.205 22.1168 47.1738 22.1653C47.1363 22.2292 47.1071 22.2976 47.0868 22.3689C47.0645 22.453 47.0579 22.5405 47.0672 22.6271C47.0694 22.689 47.0814 22.7502 47.1027 22.8085C47.1347 22.8863 47.1723 22.9617 47.2152 23.0341C47.2264 23.0612 47.1561 23.0271 47.0892 23.0064C46.9404 22.9555 46.745 22.9011 46.5536 22.8511C44.9296 22.4758 43.1429 22.1985 41.4045 21.9022C37.8998 21.3245 34.3808 20.7344 30.8805 20.0499C29.1323 19.6974 27.3873 19.323 25.6505 18.9036L23.0552 18.2786L21.7937 17.9833L20.5294 17.7273C18.8555 17.4148 17.1662 17.191 15.4687 17.0567C13.8013 16.9012 12.1211 16.9476 10.4648 17.1951C9.65016 17.3396 8.85473 17.5769 8.09406 17.9024C7.34012 18.2424 6.64487 18.6999 6.03425 19.2578C4.80523 20.4226 3.9703 21.9421 3.64589 23.6043C3.32841 25.2958 3.33868 27.0325 3.67615 28.7201C4.00491 30.4133 4.42876 32.0867 4.94568 33.7323L6.4277 38.7068C6.93558 40.3703 7.47844 42.0344 8.03613 43.7035C9.16066 47.038 10.3375 50.3977 11.4691 53.8346L11.1273 54.0557Z" fill="#3D3D3D"/>
<path d="M181.231 33.1851C181.313 30.1313 181.511 27.1556 181.69 24.2195C181.777 22.7512 181.859 21.2926 181.92 19.8443C181.968 18.3941 182.024 16.9605 182.107 15.5263C182.21 14.0928 182.238 12.6549 182.193 11.2184C182.156 9.78656 181.831 8.37672 181.239 7.07253C180.648 5.80074 179.664 4.75271 178.432 4.08316C177.827 3.76838 177.174 3.55453 176.499 3.45003C175.822 3.35906 175.136 3.34711 174.456 3.41443C173.081 3.59131 171.731 3.92835 170.434 4.41867C169.121 4.9009 167.808 5.42689 166.52 6.04591C165.876 6.35347 165.24 6.68629 164.607 7.02869L162.638 8.08814C161.32 8.79795 159.982 9.46526 158.635 10.1109C155.932 11.383 153.186 12.5653 150.442 13.716C149.085 14.2934 147.677 14.866 146.433 15.4641C146.289 15.5382 146.142 15.6173 146.037 15.6787C145.99 15.7027 145.943 15.7403 145.958 15.6961C145.989 15.6086 146.011 15.5176 146.021 15.4251C146.028 15.3612 146.024 15.2967 146.011 15.2338C145.998 15.1455 145.969 15.0602 145.926 14.9822C145.888 14.916 145.841 14.8552 145.787 14.8013C145.743 14.7604 145.695 14.725 145.642 14.696C145.502 14.6252 145.46 14.6419 145.447 14.6443C145.436 14.6513 145.448 14.6608 145.471 14.6688C145.533 14.6878 145.597 14.6996 145.661 14.7039C145.83 14.7175 145.999 14.7217 146.168 14.7165C146.888 14.7069 147.651 14.6371 148.411 14.5843L148.538 14.9711C147.868 15.3797 147.167 15.7344 146.441 16.032C146.244 16.109 146.043 16.1758 145.838 16.2321C145.717 16.2654 145.593 16.2896 145.468 16.3046C145.382 16.3147 145.297 16.3173 145.211 16.3122C145.049 16.3037 144.89 16.2586 144.748 16.1804C144.675 16.1395 144.608 16.0893 144.549 16.0311C144.475 15.9638 144.414 15.8841 144.368 15.7956C144.315 15.6963 144.278 15.5892 144.259 15.4784C144.247 15.3917 144.245 15.304 144.252 15.2168C144.272 15.0309 144.332 14.8516 144.428 14.6912C144.513 14.548 144.611 14.4129 144.72 14.2877C144.889 14.0917 145.04 13.9426 145.195 13.7902C146.351 12.7305 147.588 11.7625 148.895 10.8953C151.404 9.19024 154.008 7.62925 156.694 6.21987C158.033 5.52485 159.387 4.86492 160.765 4.25657C161.456 3.944 162.133 3.65293 162.848 3.35124C163.569 3.04723 164.299 2.75927 165.042 2.49284C166.535 1.92936 168.078 1.51181 169.652 1.24603C171.268 0.974863 172.917 0.954899 174.54 1.18683C176.169 1.38554 177.728 1.96456 179.091 2.87712C180.455 3.78969 181.585 5.01024 182.39 6.44019C184.015 9.18744 185.073 12.233 185.5 15.3965C185.681 16.9518 185.692 18.5223 185.533 20.08C185.258 23.1564 184.595 26.1856 183.562 29.096C183.057 30.5642 182.405 31.9776 181.617 33.3147L181.231 33.1851Z" fill="#3D3D3D"/>
<path d="M68.1155 68.234C68.2607 70.1404 68.1422 72.0578 67.7635 73.9318C67.3837 75.9009 66.6358 77.7805 65.559 79.472C64.4203 81.2274 62.8679 82.676 61.0384 83.6907C59.1871 84.7066 57.1176 85.2594 55.0065 85.3018C52.9375 85.3191 50.8892 84.8881 49.0025 84.0386C47.192 83.2195 45.5248 82.1148 44.0646 80.7667C41.114 78.1117 39.1235 74.5555 38.4029 70.6516C38.028 68.5984 38.1007 66.4885 38.6161 64.4661C39.1315 62.4437 40.0774 60.5565 41.3892 58.9336C42.7099 57.2392 44.3698 55.8394 46.2626 54.8237C48.1554 53.808 50.2393 53.1989 52.3811 53.0353C54.5243 52.8927 56.6733 53.2097 58.6842 53.965C60.6494 54.7273 62.4065 55.9435 63.8122 57.5145C65.1426 59.0229 66.1817 60.7652 66.8768 62.6527C67.5533 64.4447 67.9704 66.3241 68.1155 68.234ZM67.7098 68.267C67.5484 66.4371 66.926 64.678 65.9007 63.1539C64.8944 61.6978 63.5843 60.4773 62.0609 59.5765C60.6344 58.7295 59.088 58.1033 57.4741 57.7194C55.9259 57.3306 54.3222 57.2122 52.7337 57.3694C51.1579 57.5297 49.6199 57.952 48.183 58.6187C46.7311 59.3035 45.4211 60.2556 44.3214 61.4252C42.0622 63.9106 40.7529 67.1141 40.6241 70.4708C40.5722 72.2342 40.9238 73.986 41.6523 75.5927C42.3763 77.2202 43.4874 78.6459 44.8887 79.7454C46.29 80.8448 47.9389 81.5847 49.6916 81.9004C51.3576 82.2004 53.0632 82.206 54.7311 81.9169C58.0014 81.3718 61.0614 79.946 63.5827 77.7926C64.9335 76.643 66.0243 75.2191 66.7829 73.6156C67.547 71.9423 67.8663 70.1 67.7098 68.267Z" fill="#3D3D3D"/>
<path d="M68.0564 70.7229C68.4097 63.5528 64.3745 57.527 59.0435 57.2639C53.7125 57.0008 49.1044 62.6001 48.7511 69.7702C48.3978 76.9404 52.433 82.9662 57.764 83.2293C63.095 83.4924 67.703 77.8931 68.0564 70.7229Z" fill="#3D3D3D"/>
<path d="M136.616 62.7594C136.762 64.6658 136.643 66.5832 136.264 68.4572C135.885 70.4262 135.137 72.3059 134.06 73.9974C132.921 75.7527 131.369 77.2014 129.539 78.2161C127.688 79.232 125.619 79.7847 123.507 79.8272C121.438 79.8445 119.39 79.4135 117.503 78.564C115.693 77.7449 114.026 76.6402 112.566 75.2921C109.615 72.637 107.624 69.0809 106.904 65.177C106.529 63.1238 106.602 61.0139 107.117 58.9915C107.632 56.9691 108.578 55.0819 109.89 53.459C111.211 51.7646 112.871 50.3647 114.764 49.3491C116.656 48.3334 118.74 47.7243 120.882 47.5607C123.025 47.4181 125.174 47.735 127.185 48.4904C129.15 49.2527 130.907 50.4689 132.313 52.0399C133.644 53.5483 134.683 55.2905 135.378 57.1781C136.054 58.9701 136.471 60.8495 136.616 62.7594ZM136.211 62.7924C136.049 60.9625 135.427 59.2034 134.402 57.6793C133.395 56.2232 132.085 55.0027 130.562 54.1019C129.135 53.2549 127.589 52.6287 125.975 52.2448C124.427 51.856 122.823 51.7376 121.235 51.8948C119.659 52.0551 118.121 52.4774 116.684 53.1441C115.232 53.8289 113.922 54.781 112.822 55.9506C110.563 58.436 109.254 61.6395 109.125 64.9962C109.073 66.7596 109.425 68.5114 110.153 70.118C110.877 71.7456 111.988 73.1713 113.39 74.2708C114.791 75.3702 116.44 76.1101 118.193 76.4258C119.859 76.7258 121.564 76.7314 123.232 76.4423C126.502 75.8972 129.562 74.4714 132.084 72.318C133.434 71.1683 134.525 69.7445 135.284 68.1409C136.048 66.4677 136.367 64.6254 136.211 62.7924Z" fill="#3D3D3D"/>
<path d="M136.458 63.9256C136.811 56.7554 132.776 50.7296 127.445 50.4665C122.114 50.2035 117.506 55.8027 117.152 62.9729C116.799 70.143 120.834 76.1688 126.165 76.4319C131.496 76.695 136.104 71.0957 136.458 63.9256Z" fill="#3D3D3D"/>
</svg>
